<?xml version="1.0" encoding="UTF-8" standalone="no"?>
<!-- Generator: Adobe Illustrator 17.1.0, SVG Export Plug-In . SVG Version: 6.00 Build 0)  -->

<svg
   xmlns:dc="http://purl.org/dc/elements/1.1/"
   xmlns:cc="http://creativecommons.org/ns#"
   xmlns:rdf="http://www.w3.org/1999/02/22-rdf-syntax-ns#"
   xmlns:svg="http://www.w3.org/2000/svg"
   xmlns="http://www.w3.org/2000/svg"
   xmlns:sodipodi="http://sodipodi.sourceforge.net/DTD/sodipodi-0.dtd"
   xmlns:inkscape="http://www.inkscape.org/namespaces/inkscape"
   version="1.1"
   x="0px"
   y="0px"
   viewBox="0 0 177 100"
   enable-background="new 0 0 118.8 66.1"
   xml:space="preserve"
   id="svg2"
   inkscape:version="0.91 r13725"
   sodipodi:docname="logo.svg"
   width="195"
   height="110"><metadata
     id="metadata81"><rdf:RDF><cc:Work
         rdf:about=""><dc:format>image/svg+xml</dc:format><dc:type
           rdf:resource="http://purl.org/dc/dcmitype/StillImage" /><dc:title></dc:title></cc:Work></rdf:RDF></metadata><defs
     id="defs79" /><sodipodi:namedview
     pagecolor="#ffffff"
     bordercolor="#666666"
     borderopacity="1"
     objecttolerance="10"
     gridtolerance="10"
     guidetolerance="10"
     inkscape:pageopacity="0"
     inkscape:pageshadow="2"
     inkscape:window-width="1443"
     inkscape:window-height="838"
     id="namedview77"
     showgrid="false"
     inkscape:zoom="2.2474747"
     inkscape:cx="59.400002"
     inkscape:cy="86.443259"
     inkscape:window-x="0"
     inkscape:window-y="36"
     inkscape:window-maximized="0"
     inkscape:current-layer="svg2" /><g
     id="Warstwa_2"
     display="none"
     style="display:none"
     transform="translate(0,33.900002)" /><g
     id="Warstwa_1"
     transform="matrix(1.570649,0,0,1.570649,-4.5562227,-1.909042)"><g
       id="g6"><g
         id="g8"><g
           id="g10"><g
             id="g12"><g
               id="g14"><path
                 d="M 53.1,22 C 56.4,10.7 65.7,4.3 78.2,4.4 c 15.1,0.2 27.5,13.3 25.5,29.4 0,0 -22.8,-13.5 -50.6,-11.8"
                 id="path16"
                 inkscape:connector-curvature="0"
                 style="fill:#f2a41a" /></g><g
               id="g18"><path
                 d="m 15.3,33.2 c 1.4,-1.1 3.4,-1.8 4.8,-2.5 2.4,-1.1 4.8,-2.1 7.2,-2.9 4.2,-1.5 8,-2.5 10.1,-2.8 4.2,-0.5 8.3,-1.4 12.5,-1.7 4.9,-0.3 9.8,-0.2 14.7,0.3 2.7,0.3 5.4,0.7 8,1.2 2.8,0.6 5.5,1.4 8.3,2.1 C 80.1,26.7 79.3,26.6 78.5,26.4 76.2,26 74,25.8 71.7,25.6 68.2,25.3 64.8,25.3 61.3,25.4 56.9,25.5 52.5,25.9 48.1,26.6 43,27.5 38,29.1 32.9,30.2 c -3.5,0.7 -9.7,3.1 -16.3,6.6 -0.4,0.2 -0.9,0.4 -1.4,0.5 -1,0.2 -2.3,-0.2 -1.9,-1.4 0.4,-1.1 1.1,-2 2,-2.7 z"
                 id="path20"
                 inkscape:connector-curvature="0"
                 style="fill:#14a7ca" /></g><g
               id="g22"><path
                 d="m 37.2,32.5 c 0.9,-0.2 1.8,-0.5 2.7,-0.7 2.4,-0.5 4.9,-1 7.3,-1.4 3.6,-0.6 7.3,-0.9 10.9,-1.2 4.4,-0.3 8.9,-0.3 13.4,-0.1 5,0.3 9.9,0.9 14.7,1.9 5.1,1.1 10.2,2.7 15,4.8 1.3,0.6 2.7,1.2 3.6,2.4 0.6,0.9 0.8,2.7 -0.7,2.8 -1,0.1 -2.3,-0.5 -3.2,-0.9 -1.1,-0.4 -2.1,-0.9 -3.1,-1.3 -1,-0.4 -1.9,-0.7 -2.9,-1 -3.1,-1 -6.2,-1.9 -9.3,-2.7 C 81.3,34 76.9,33.1 72.5,32.5 67.3,31.7 62,31.2 56.7,31.1 c -5.8,-0.1 -11.6,0.1 -17.4,1 -0.6,0.2 -1.4,0.2 -2.1,0.4 z"
                 id="path24"
                 inkscape:connector-curvature="0"
                 style="fill:#f2a41a" /></g><g
               id="g26"><path
                 d="M 74.5,36.5 C 73.6,36.4 72.6,36 71.7,35.8 69.1,35.3 66.5,34.8 63.9,34.5 60,34 56.1,33.7 52.2,33.6 c -4.9,-0.1 -9.7,0.1 -14.6,0.6 -5.5,0.6 -11,1.6 -16.4,3.1 -2.6,0.8 -5.2,1.7 -7.8,2.7 -1.3,0.5 -2.6,1.1 -3.9,1.6 -1,0.4 -1.9,1.1 -2.6,1.9 -0.4,0.5 -1.2,1.7 -0.6,2.3 1.3,1.3 3.8,-0.3 5.1,-0.8 0.7,-0.3 1.4,-0.6 2.1,-0.9 2.2,-0.8 4.4,-1.6 6.6,-2.3 3.1,-1 6.3,-1.8 9.5,-2.5 4,-0.9 8.1,-1.6 12.2,-2.1 4.9,-0.6 9.8,-1 14.7,-1.2 5.7,-0.2 11.3,0 17,0.4 0.2,0.1 0.6,0.1 1,0.1 z"
                 id="path28"
                 inkscape:connector-curvature="0"
                 style="fill:#14a7ca" /></g><g
               id="g30"><path
                 d="m 112.8,54.9 c -0.6,-0.3 -1.1,-0.9 -1.7,-1.3 -1.6,-1.1 -3.2,-2.2 -4.9,-3.2 -2.5,-1.5 -5.1,-2.9 -7.7,-4.2 -3.3,-1.6 -6.7,-3 -10.2,-4.2 -4,-1.4 -8.2,-2.5 -12.4,-3.3 -4.7,-0.9 -9.4,-1.4 -14.2,-1.5 -2.5,0 -5.1,0 -7.6,0.3 -2.7,0.2 -6.4,0.2 -8.4,2.4 -0.5,0.5 -0.7,1.2 0,1.6 0.7,0.5 1.7,0.4 2.6,0.3 2.9,-0.5 5.8,-0.6 8.7,-0.7 3.5,-0.1 7.1,0 10.6,0.2 4.4,0.3 8.9,0.9 13.2,1.8 5.1,1 10.2,2.4 15.1,4.1 5.6,2 10.9,4.4 16.1,7.3 0.2,0.1 0.5,0.2 0.8,0.4 z"
                 id="path32"
                 inkscape:connector-curvature="0"
                 style="fill:#f2a41a" /></g></g></g><g
           id="g34"><g
             id="g36"><path
               d="m 19.5,54.4 -2.3,0 0.1,-1.5 4.2,0 0,5 c -1.1,0.5 -2.2,1 -3.8,1 -3.3,0 -5.4,-2.2 -5.4,-5.6 0,-3.1 2,-5.5 5.4,-5.5 1.4,0 2.6,0.3 3.5,1 l -0.7,1.4 c -0.7,-0.4 -1.7,-0.7 -2.8,-0.7 -2,0 -3.3,1.3 -3.3,3.8 l 0,0.1 c 0,2.2 1,3.8 3.1,3.8 0.8,0 1.4,-0.2 1.9,-0.4 l 0,-2.4 z"
               id="path38"
               inkscape:connector-curvature="0"
               style="fill:#4c637b" /><path
               d="m 30.4,54.7 c 0,2.4 -1.3,4.1 -3.9,4.1 -2.6,0 -3.9,-1.7 -3.9,-4.1 0,-2.4 1.3,-4.2 3.9,-4.2 2.6,0 3.9,1.8 3.9,4.2 z m -2,0 c 0,-1.8 -0.8,-2.6 -1.9,-2.6 -1.1,0 -1.9,0.9 -1.9,2.6 0,1.7 0.7,2.6 1.9,2.6 1.2,0 1.9,-0.9 1.9,-2.6 z M 28.3,47.2 26,50 l -1.2,0 1.2,-2.8 2.3,0 z"
               id="path40"
               inkscape:connector-curvature="0"
               style="fill:#4c637b" /><path
               d="m 36,50.8 0.1,1.6 -0.6,0 c -1.5,0 -1.8,0.8 -1.8,1.9 l 0,4.3 -2.1,0 0,-7.9 1.9,0 0.2,1.1 c 0.5,-0.7 1,-1.1 2,-1.1 l 0.3,0 z"
               id="path42"
               inkscape:connector-curvature="0"
               style="fill:#4c637b" /><path
               d="m 42.6,58.7 -6.3,0 0,-1.2 3.6,-5.3 -3.4,0 0,-1.3 6,0 0,1.1 -3.6,5.4 3.7,0 0,1.3 z"
               id="path44"
               inkscape:connector-curvature="0"
               style="fill:#4c637b" /><path
               d="m 46,58.4 -3.2,-7.6 2.2,0 2.1,5.2 1.8,-5.2 2.1,0 -3.2,8.4 c -0.8,2 -1.7,2.5 -3.3,2.5 l -1,0 -0.2,-1.5 0.5,0 c 1.3,0 1.7,0.1 2.2,-1.8 z"
               id="path46"
               inkscape:connector-curvature="0"
               style="fill:#4c637b" /><path
               d="M 56.7,52.5 C 56.2,52.2 55.2,52 54.6,52 c -0.8,0 -1.2,0.2 -1.2,0.7 0,0.5 0.2,0.7 0.9,0.9 l 1.2,0.4 c 1,0.3 2,1 2,2.3 0,1.3 -0.9,2.5 -2.7,2.5 -1.5,0 -2.5,-0.2 -3.3,-0.8 l 0.4,-1.4 c 0.7,0.4 1.9,0.7 2.6,0.7 0.6,0 1.1,-0.2 1.1,-0.8 0,-0.5 -0.2,-0.6 -0.8,-0.8 l -1.2,-0.4 c -1.1,-0.4 -2,-1 -2,-2.3 0,-1.6 1.2,-2.4 2.9,-2.4 1.1,0 2,0.2 2.7,0.6 l -0.5,1.3 z"
               id="path48"
               inkscape:connector-curvature="0"
               style="fill:#4c637b" /><path
               d="m 60.5,47.6 0,6.2 2.9,-3 2.6,0 -3.1,3.2 3.5,4.6 -2.6,0 -2.7,-3.8 -0.5,0.4 0,3.4 -2.1,0 0,-11 2,0 z"
               id="path50"
               inkscape:connector-curvature="0"
               style="fill:#4c637b" /><path
               d="m 74.1,54.7 c 0,2.4 -1.3,4.1 -3.9,4.1 -2.6,0 -3.9,-1.7 -3.9,-4.1 0,-2.4 1.3,-4.2 3.9,-4.2 2.6,0 3.9,1.8 3.9,4.2 z m -2,0 c 0,-1.8 -0.8,-2.6 -1.9,-2.6 -1.1,0 -1.9,0.9 -1.9,2.6 0,1.7 0.7,2.6 1.9,2.6 1.2,0 1.9,-0.9 1.9,-2.6 z"
               id="path52"
               inkscape:connector-curvature="0"
               style="fill:#4c637b" /><path
               d="m 85,50.8 2.1,0 -2.9,7.9 -1.7,0 -1.7,-5.7 -2,5.7 -1.7,0 -2.5,-7.9 2.1,0 1.4,5 1.9,-5 1.8,0 1.6,5 1.6,-5 z"
               id="path54"
               inkscape:connector-curvature="0"
               style="fill:#4c637b" /><path
               d="m 95.3,54.7 c 0,2.4 -1.3,4.1 -3.9,4.1 -2.6,0 -3.9,-1.7 -3.9,-4.1 0,-2.4 1.3,-4.2 3.9,-4.2 2.6,0 3.9,1.8 3.9,4.2 z m -2,0 c 0,-1.8 -0.8,-2.6 -1.9,-2.6 -1.1,0 -1.9,0.9 -1.9,2.6 0,1.7 0.7,2.6 1.9,2.6 1.2,0 1.9,-0.9 1.9,-2.6 z"
               id="path56"
               inkscape:connector-curvature="0"
               style="fill:#4c637b" /></g></g></g></g></g><g
     id="Warstwa_3"
     display="none"
     style="display:none"
     transform="translate(0,33.900002)" /></svg>