<svg id="svg10" xmlns="http://www.w3.org/2000/svg" viewBox="0 0 1340.89 321.95" fill="#fff"><title>logo_zlaczone</title><g id="g18"><g id="path22"><path d="M233.88,326.43c-46.77-4.35-84.14-14.45-121.56-32.86C78.41,276.9,49,255.47,19.58,226.06,8.43,214.91,4.71,210.44,2.21,205.21c-1.83-3.84-2-6.23-.52-8,.88-1.08,1.54-1.29,4-1.26,4.7.07,7.88,2.1,16.64,10.6a243.13,243.13,0,0,0,31.84,26.16c15.89,11.25,43.84,25.14,66.4,33,36.28,12.64,69,18.28,105.84,18.28a313.57,313.57,0,0,0,68.05-7.27l5.4-1.24-.08-9.57c-.15-19-2.15-30.21-6.94-38.82-5.81-10.46-15.12-9.94-25.56,1.43s-18,28.75-18,41.27v2.68H241.4l.32-5.08c.58-9.13,4-19.9,9.21-29,6.34-11.08,14.39-19.91,21.89-24l2.85-1.56-2.25-.9a17.61,17.61,0,0,1-8.33-8.18c-1.08-2.4-1.29-3.78-1.3-8.36,0-6.31.88-9.25,4-13.34,2.48-3.25,2.82-5.07,2.85-15.2,0-6.46-.22-9.23-1.1-12.89-3-12.46-8.81-22.23-15.68-26.34-2.79-1.68-3.66-1.92-6.82-1.92s-4.23.3-8,2.15c-3.55,1.75-5.43,3.23-10.17,8-5.45,5.46-6,6.21-8.92,12.31-1.71,3.58-3.11,6.63-3.11,6.79a31.51,31.51,0,0,1-1.6,3.42c-2.27,4.48-9.07,20.49-12.13,28.57A232.24,232.24,0,0,0,188,261.05l-.37,8.64H180.1V266c0-8.59,1.88-27.49,3.79-38.55,3.19-18.54,10.1-40,20.39-63.29,4-9,4.43-10.4,4.71-14.37.39-5.42-.4-8.58-2.74-11-1.74-1.79-1.79-1.8-6.41-1.66a32.2,32.2,0,0,0-10,1.9c-5.79,1.9-9.08,3.9-18.24,11.11-19.5,15.35-22.94,24-12.61,31.75a11.85,11.85,0,0,1,2.45,2.16c0,.17-4.1,5.12-9.11,11-26.53,31.17-32.4,40.86-33.5,55.29-.32,4.2-.44,4.52-1.56,4.52-.67,0-2.4.17-3.85.37l-2.64.36.37-5.51c.57-8.74,3.86-18.16,9.51-27.22,2.93-4.7,12.41-16.88,21-27,4.87-5.72,8.84-10.69,8.84-11a2.29,2.29,0,0,0-.85-1.35,14.71,14.71,0,0,1-2.17-2.95c-6.11-10.46.63-22.2,22.09-38.46,3.85-2.92,7.06-5.47,7.14-5.67s-1-.82-2.33-1.38c-3.24-1.33-7.56-6.09-9-9.89-4-10.66.5-24.1,10.49-31.37,4.89-3.56,8.49-4.8,14.14-4.87,4.24,0,5,.12,8.34,1.75,5.81,2.86,9.27,7.75,10.49,14.8,1.11,6.45-1.44,15.25-6,20.85-1.08,1.32-1.85,2.5-1.72,2.63a15.29,15.29,0,0,0,3.17.8,13.77,13.77,0,0,1,9.47,6.1,13.7,13.7,0,0,0,1.94,2.68c.15,0,2.63-2.49,5.51-5.53,5.74-6.07,10.08-9.65,14-11.55a8.68,8.68,0,0,0,2.56-1.57c0-.17-.68-.72-1.51-1.21-5.37-3.18-9.53-9.93-10.5-17.08-1.87-13.67,11.18-26.82,26.55-26.76,9.91,0,17.59,4,20.92,10.82a22.43,22.43,0,0,1,1.12,14.51c-1.92,6.53-7.59,13.83-13.94,17.94L257,120.26l3.77,3.08c6.25,5.1,11.12,12.83,14.53,23.06,2.5,7.49,3.17,11.85,3.17,20.78v7.51l1.7-.38a22.89,22.89,0,0,1,11.42.94c9.36,3.62,14.28,14.23,10.83,23.37-1.61,4.29-6.52,9.3-11.32,11.57a13.45,13.45,0,0,0-3.43,2,6.78,6.78,0,0,0,2.41,1.54c6.09,3,11.72,11.91,14.42,23a36.36,36.36,0,0,0,1.79,6.13,32,32,0,0,0,2.75-4.51c2.9-5.27,9.47-12.24,13-13.82,1.28-.57,2.33-1.22,2.33-1.45a6.58,6.58,0,0,0-2.45-1.6,12.5,12.5,0,0,1-6.68-8.11,12,12,0,0,1-.28-6.87c2.53-14.87,17.57-22.64,28.11-14.52,5.36,4.12,7.41,12,4.87,18.76a19.9,19.9,0,0,1-9.09,10l-3.07,1.65,2.66,1.29c5.47,2.63,10.34,9.57,12.51,17.8a85.36,85.36,0,0,1,1.53,10c.36,3.69.83,6.72,1,6.72,1,0,19.6-8.53,29.29-13.44,16.77-8.5,26.37-14.37,39.77-24.32C434,212,450.44,198.65,464,186.86c8.05-7,13.11-10.76,15.91-11.83,9.57-3.65,7.67,7.73-3.38,20.3-6.59,7.5-36.14,35.74-51.66,49.37-56.93,50-104,73.85-159.17,80.69-6.72.83-26.95,1.49-31.83,1Zm82.81-55.35c4.71-1.36,12.39-3.8,17.07-5.43,12.89-4.5,11.52-3.6,11.52-7.61,0-9-1.91-17.79-4.86-22.44-6.89-10.85-18.67-6.39-26.66,10.11-4.27,8.81-6.34,16.23-6.34,22.71,0,2.81.15,5.11.35,5.11s4.21-1.1,8.92-2.45Zm17.12-56.34c8.24-2.76,10.43-13.27,3.66-17.52-2.65-1.67-6.89-1.24-9.62.95-5.56,4.48-7.29,14-3,16.35C326.65,215.48,331.25,215.59,333.81,214.74Zm-46.4-11.05c3.18-1.61,7.21-5.72,7.64-7.78.16-.77.41-2,.56-2.7.5-2.42-1.22-6.67-3.52-8.76-4.67-4.21-11.23-4.11-16.2.27-3.08,2.71-4.21,5.58-4.21,10.73,0,4.69.95,6.81,3.94,8.85,1.63,1.12,2.37,1.26,5.45,1a16.43,16.43,0,0,0,6.34-1.65ZM189.7,127.57c5.7-2.77,10.86-10.13,11.59-16.56,1.57-13.86-12.07-19.54-22.82-9.49-7,6.52-9,17-4.6,23.4,3,4.41,9.84,5.55,15.83,2.65ZM254.09,113c4.15-1.93,9.57-7.51,11.69-12.05,1.5-3.2,1.67-4.07,1.48-7.42s-.46-4.11-1.87-5.88A15.67,15.67,0,0,0,261,84.2c-2.39-1.2-3.43-1.37-8.48-1.37s-6.07.15-8.86,1.52a22.23,22.23,0,0,0-9.29,9c-1,2-1.16,3.14-.94,6.41.73,11.27,10.9,17.8,20.64,13.26Z" transform="translate(-0.71 -4.62)"/></g><g id="path24"><path d="M233.88,326.43c-46.77-4.35-84.14-14.45-121.56-32.86C78.41,276.9,49,255.47,19.58,226.06,8.43,214.91,4.71,210.44,2.21,205.21c-1.83-3.84-2-6.23-.52-8,.88-1.08,1.54-1.29,4-1.26,4.7.07,7.88,2.1,16.64,10.6a243.13,243.13,0,0,0,31.84,26.16c15.89,11.25,43.84,25.14,66.4,33,36.28,12.64,69,18.28,105.84,18.28a313.57,313.57,0,0,0,68.05-7.27l5.4-1.24-.08-9.57c-.15-19-2.15-30.21-6.94-38.82-5.81-10.46-15.12-9.94-25.56,1.43s-18,28.75-18,41.27v2.68H241.4l.32-5.08c.58-9.13,4-19.9,9.21-29,6.34-11.08,14.39-19.91,21.89-24l2.85-1.56-2.25-.9a17.61,17.61,0,0,1-8.33-8.18c-1.08-2.4-1.29-3.78-1.3-8.36,0-6.31.88-9.25,4-13.34,2.48-3.25,2.82-5.07,2.85-15.2,0-6.46-.22-9.23-1.1-12.89-3-12.46-8.81-22.23-15.68-26.34-2.79-1.68-3.66-1.92-6.82-1.92s-4.23.3-8,2.15c-3.55,1.75-5.43,3.23-10.17,8-5.45,5.46-6,6.21-8.92,12.31-1.71,3.58-3.11,6.63-3.11,6.79a31.51,31.51,0,0,1-1.6,3.42c-2.27,4.48-9.07,20.49-12.13,28.57A232.24,232.24,0,0,0,188,261.05l-.37,8.64H180.1V266c0-8.59,1.88-27.49,3.79-38.55,3.19-18.54,10.1-40,20.39-63.29,4-9,4.43-10.4,4.71-14.37.39-5.42-.4-8.58-2.74-11-1.74-1.79-1.79-1.8-6.41-1.66a32.2,32.2,0,0,0-10,1.9c-5.79,1.9-9.08,3.9-18.24,11.11-19.5,15.35-22.94,24-12.61,31.75a11.85,11.85,0,0,1,2.45,2.16c0,.17-4.1,5.12-9.11,11-26.53,31.17-32.4,40.86-33.5,55.29-.32,4.2-.44,4.52-1.56,4.52-.67,0-2.4.17-3.85.37l-2.64.36.37-5.51c.57-8.74,3.86-18.16,9.51-27.22,2.93-4.7,12.41-16.88,21-27,4.87-5.72,8.84-10.69,8.84-11a2.29,2.29,0,0,0-.85-1.35,14.71,14.71,0,0,1-2.17-2.95c-6.11-10.46.63-22.2,22.09-38.46,3.85-2.92,7.06-5.47,7.14-5.67s-1-.82-2.33-1.38c-3.24-1.33-7.56-6.09-9-9.89-4-10.66.5-24.1,10.49-31.37,4.89-3.56,8.49-4.8,14.14-4.87,4.24,0,5,.12,8.34,1.75,5.81,2.86,9.27,7.75,10.49,14.8,1.11,6.45-1.44,15.25-6,20.85-1.08,1.32-1.85,2.5-1.72,2.63a15.29,15.29,0,0,0,3.17.8,13.77,13.77,0,0,1,9.47,6.1,13.7,13.7,0,0,0,1.94,2.68c.15,0,2.63-2.49,5.51-5.53,5.74-6.07,10.08-9.65,14-11.55a8.68,8.68,0,0,0,2.56-1.57c0-.17-.68-.72-1.51-1.21-5.37-3.18-9.53-9.93-10.5-17.08-1.87-13.67,11.18-26.82,26.55-26.76,9.91,0,17.59,4,20.92,10.82a22.43,22.43,0,0,1,1.12,14.51c-1.92,6.53-7.59,13.83-13.94,17.94L257,120.26l3.77,3.08c6.25,5.1,11.12,12.83,14.53,23.06,2.5,7.49,3.17,11.85,3.17,20.78v7.51l1.7-.38a22.89,22.89,0,0,1,11.42.94c9.36,3.62,14.28,14.23,10.83,23.37-1.61,4.29-6.52,9.3-11.32,11.57a13.45,13.45,0,0,0-3.43,2,6.78,6.78,0,0,0,2.41,1.54c6.09,3,11.72,11.91,14.42,23a36.36,36.36,0,0,0,1.79,6.13,32,32,0,0,0,2.75-4.51c2.9-5.27,9.47-12.24,13-13.82,1.28-.57,2.33-1.22,2.33-1.45a6.58,6.58,0,0,0-2.45-1.6,12.5,12.5,0,0,1-6.68-8.11,12,12,0,0,1-.28-6.87c2.53-14.87,17.57-22.64,28.11-14.52,5.36,4.12,7.41,12,4.87,18.76a19.9,19.9,0,0,1-9.09,10l-3.07,1.65,2.66,1.29c5.47,2.63,10.34,9.57,12.51,17.8a85.36,85.36,0,0,1,1.53,10c.36,3.69.83,6.72,1,6.72,1,0,19.6-8.53,29.29-13.44,16.77-8.5,26.37-14.37,39.77-24.32C434,212,450.44,198.65,464,186.86c8.05-7,13.11-10.76,15.91-11.83,9.57-3.65,7.67,7.73-3.38,20.3-6.59,7.5-36.14,35.74-51.66,49.37-56.93,50-104,73.85-159.17,80.69-6.72.83-26.95,1.49-31.83,1Zm82.81-55.35c4.71-1.36,12.39-3.8,17.07-5.43,12.89-4.5,11.52-3.6,11.52-7.61,0-9-1.91-17.79-4.86-22.44-6.89-10.85-18.67-6.39-26.66,10.11-4.27,8.81-6.34,16.23-6.34,22.71,0,2.81.15,5.11.35,5.11s4.21-1.1,8.92-2.45Zm17.12-56.34c8.24-2.76,10.43-13.27,3.66-17.52-2.65-1.67-6.89-1.24-9.62.95-5.56,4.48-7.29,14-3,16.35C326.65,215.48,331.25,215.59,333.81,214.74Zm-46.4-11.05c3.18-1.61,7.21-5.72,7.64-7.78.16-.77.41-2,.56-2.7.5-2.42-1.22-6.67-3.52-8.76-4.67-4.21-11.23-4.11-16.2.27-3.08,2.71-4.21,5.58-4.21,10.73,0,4.69.95,6.81,3.94,8.85,1.63,1.12,2.37,1.26,5.45,1a16.43,16.43,0,0,0,6.34-1.65ZM189.7,127.57c5.7-2.77,10.86-10.13,11.59-16.56,1.57-13.86-12.07-19.54-22.82-9.49-7,6.52-9,17-4.6,23.4,3,4.41,9.84,5.55,15.83,2.65ZM254.09,113c4.15-1.93,9.57-7.51,11.69-12.05,1.5-3.2,1.67-4.07,1.48-7.42s-.46-4.11-1.87-5.88A15.67,15.67,0,0,0,261,84.2c-2.39-1.2-3.43-1.37-8.48-1.37s-6.07.15-8.86,1.52a22.23,22.23,0,0,0-9.29,9c-1,2-1.16,3.14-.94,6.41.73,11.27,10.9,17.8,20.64,13.26Z" transform="translate(-0.71 -4.62)"/></g><g id="path26"><path d="M233.88,326.43c-46.77-4.35-84.14-14.45-121.56-32.86C78.41,276.9,49,255.47,19.58,226.06,8.43,214.91,4.71,210.44,2.21,205.21c-1.83-3.84-2-6.23-.52-8,.88-1.08,1.54-1.29,4-1.26,4.7.07,7.88,2.1,16.64,10.6a243.13,243.13,0,0,0,31.84,26.16c15.89,11.25,43.84,25.14,66.4,33,36.28,12.64,69,18.28,105.84,18.28a313.57,313.57,0,0,0,68.05-7.27l5.4-1.24-.08-9.57c-.15-19-2.15-30.21-6.94-38.82-5.81-10.46-15.12-9.94-25.56,1.43s-18,28.75-18,41.27v2.68H241.4l.32-5.08c.58-9.13,4-19.9,9.21-29,6.34-11.08,14.39-19.91,21.89-24l2.85-1.56-2.25-.9a17.61,17.61,0,0,1-8.33-8.18c-1.08-2.4-1.29-3.78-1.3-8.36,0-6.31.88-9.25,4-13.34,2.48-3.25,2.82-5.07,2.85-15.2,0-6.46-.22-9.23-1.1-12.89-3-12.46-8.81-22.23-15.68-26.34-2.79-1.68-3.66-1.92-6.82-1.92s-4.23.3-8,2.15c-3.55,1.75-5.43,3.23-10.17,8-5.45,5.46-6,6.21-8.92,12.31-1.71,3.58-3.11,6.63-3.11,6.79a31.51,31.51,0,0,1-1.6,3.42c-2.27,4.48-9.07,20.49-12.13,28.57A232.24,232.24,0,0,0,188,261.05l-.37,8.64H180.1V266c0-8.59,1.88-27.49,3.79-38.55,3.19-18.54,10.1-40,20.39-63.29,4-9,4.43-10.4,4.71-14.37.39-5.42-.4-8.58-2.74-11-1.74-1.79-1.79-1.8-6.41-1.66a32.2,32.2,0,0,0-10,1.9c-5.79,1.9-9.08,3.9-18.24,11.11-19.5,15.35-22.94,24-12.61,31.75a11.85,11.85,0,0,1,2.45,2.16c0,.17-4.1,5.12-9.11,11-26.53,31.17-32.4,40.86-33.5,55.29-.32,4.2-.44,4.52-1.56,4.52-.67,0-2.4.17-3.85.37l-2.64.36.37-5.51c.57-8.74,3.86-18.16,9.51-27.22,2.93-4.7,12.41-16.88,21-27,4.87-5.72,8.84-10.69,8.84-11a2.29,2.29,0,0,0-.85-1.35,14.71,14.71,0,0,1-2.17-2.95c-6.11-10.46.63-22.2,22.09-38.46,3.85-2.92,7.06-5.47,7.14-5.67s-1-.82-2.33-1.38c-3.24-1.33-7.56-6.09-9-9.89-4-10.66.5-24.1,10.49-31.37,4.89-3.56,8.49-4.8,14.14-4.87,4.24,0,5,.12,8.34,1.75,5.81,2.86,9.27,7.75,10.49,14.8,1.11,6.45-1.44,15.25-6,20.85-1.08,1.32-1.85,2.5-1.72,2.63a15.29,15.29,0,0,0,3.17.8,13.77,13.77,0,0,1,9.47,6.1,13.7,13.7,0,0,0,1.94,2.68c.15,0,2.63-2.49,5.51-5.53,5.74-6.07,10.08-9.65,14-11.55a8.68,8.68,0,0,0,2.56-1.57c0-.17-.68-.72-1.51-1.21-5.37-3.18-9.53-9.93-10.5-17.08-1.87-13.67,11.18-26.82,26.55-26.76,9.91,0,17.59,4,20.92,10.82a22.43,22.43,0,0,1,1.12,14.51c-1.92,6.53-7.59,13.83-13.94,17.94L257,120.26l3.77,3.08c6.25,5.1,11.12,12.83,14.53,23.06,2.5,7.49,3.17,11.85,3.17,20.78v7.51l1.7-.38a22.89,22.89,0,0,1,11.42.94c9.36,3.62,14.28,14.23,10.83,23.37-1.61,4.29-6.52,9.3-11.32,11.57a13.45,13.45,0,0,0-3.43,2,6.78,6.78,0,0,0,2.41,1.54c6.09,3,11.72,11.91,14.42,23a36.36,36.36,0,0,0,1.79,6.13,32,32,0,0,0,2.75-4.51c2.9-5.27,9.47-12.24,13-13.82,1.28-.57,2.33-1.22,2.33-1.45a6.58,6.58,0,0,0-2.45-1.6,12.5,12.5,0,0,1-6.68-8.11,12,12,0,0,1-.28-6.87c2.53-14.87,17.57-22.64,28.11-14.52,5.36,4.12,7.41,12,4.87,18.76a19.9,19.9,0,0,1-9.09,10l-3.07,1.65,2.66,1.29c5.47,2.63,10.34,9.57,12.51,17.8a85.36,85.36,0,0,1,1.53,10c.36,3.69.83,6.72,1,6.72,1,0,19.6-8.53,29.29-13.44,16.77-8.5,26.37-14.37,39.77-24.32C434,212,450.44,198.65,464,186.86c8.05-7,13.11-10.76,15.91-11.83,9.57-3.65,7.67,7.73-3.38,20.3-6.59,7.5-36.14,35.74-51.66,49.37-56.93,50-104,73.85-159.17,80.69-6.72.83-26.95,1.49-31.83,1Zm82.81-55.35c4.71-1.36,12.39-3.8,17.07-5.43,12.89-4.5,11.52-3.6,11.52-7.61,0-9-1.91-17.79-4.86-22.44-6.89-10.85-18.67-6.39-26.66,10.11-4.27,8.81-6.34,16.23-6.34,22.71,0,2.81.15,5.11.35,5.11s4.21-1.1,8.92-2.45Zm17.12-56.34c8.24-2.76,10.43-13.27,3.66-17.52-2.65-1.67-6.89-1.24-9.62.95-5.56,4.48-7.29,14-3,16.35C326.65,215.48,331.25,215.59,333.81,214.74Zm-46.4-11.05c3.18-1.61,7.21-5.72,7.64-7.78.16-.77.41-2,.56-2.7.5-2.42-1.22-6.67-3.52-8.76-4.67-4.21-11.23-4.11-16.2.27-3.08,2.71-4.21,5.58-4.21,10.73,0,4.69.95,6.81,3.94,8.85,1.63,1.12,2.37,1.26,5.45,1a16.43,16.43,0,0,0,6.34-1.65ZM189.7,127.57c5.7-2.77,10.86-10.13,11.59-16.56,1.57-13.86-12.07-19.54-22.82-9.49-7,6.52-9,17-4.6,23.4,3,4.41,9.84,5.55,15.83,2.65ZM254.09,113c4.15-1.93,9.57-7.51,11.69-12.05,1.5-3.2,1.67-4.07,1.48-7.42s-.46-4.11-1.87-5.88A15.67,15.67,0,0,0,261,84.2c-2.39-1.2-3.43-1.37-8.48-1.37s-6.07.15-8.86,1.52a22.23,22.23,0,0,0-9.29,9c-1,2-1.16,3.14-.94,6.41.73,11.27,10.9,17.8,20.64,13.26Z" transform="translate(-0.71 -4.62)"/></g><g id="path28"><path d="M223.45,325.14c-34-4.2-61.83-11.07-88.63-21.85C95.46,287.45,62,265.71,28.22,234.08c-19.19-18-27-27.77-27-33.86,0-3.32,1.32-4.31,5.22-3.91,4.28.45,6.53,1.95,15.94,10.65,22.34,20.67,36.88,30.84,62.16,43.48a317.66,317.66,0,0,0,118.6,33c11,.84,37.28.69,49.24-.27a319.39,319.39,0,0,0,45-6.86l2.88-.63v-2.56c0-1.41-.25-7.63-.53-13.81-.9-19.84-4.12-31.28-10.43-37-5.56-5-12.15-3.56-20.5,4.54-10.47,10.15-18.72,27.25-19.42,40.26l-.29,5.35h-7.63l.36-3.71A71.65,71.65,0,0,1,249.92,241c6.22-12.15,14.82-21.69,24.9-27.61.93-.54.75-.75-1.74-2a19.66,19.66,0,0,1-7.71-7.64c-1.23-2.34-1.68-10.52-.8-14.48a24.24,24.24,0,0,1,3.07-6.59c3-4.56,3.2-5.87,2.86-18.19-.23-8.61-.43-10.28-1.72-14.26q-6-18.68-16.61-23.8c-2-1-3.11-1.14-5.92-.91-5.62.45-9.94,2.92-17,9.73l-6,5.77-4.8,9.88c-5.31,10.93-12.33,27.19-16.11,37.32a233.54,233.54,0,0,0-14.35,69.49c-.17,4-.45,8.39-.6,9.67l-.29,2.33h-3.53c-2.46,0-3.53-.21-3.53-.68,0-3.75,1.36-20.78,2.25-28.4,3-25.65,8.55-44.38,24.09-81,3.73-8.8,3.8-16.6.17-20.62-1.9-2.1-2-2.15-5.63-2.15-4.89,0-11.36,1.68-16.77,4.36-9.39,4.66-26.44,19.65-29.49,25.93-2.75,5.66-1.84,9.57,3.31,14.16,2.73,2.43,3,2.79,2.26,3.68-.42.54-4.48,5.43-9,10.86-25.81,30.85-31,39.43-32.57,53.42a19,19,0,0,1-1,5,11.4,11.4,0,0,1-3.65.68l-3.18.24.36-3.88a58,58,0,0,1,6.27-22.29c3.67-7.29,8.8-14.26,24.83-33.69,4.46-5.4,8.1-10.17,8.1-10.59a8.05,8.05,0,0,0-1.67-2.86,16.85,16.85,0,0,1-3.27-9.09c0-7.9,7.66-17.6,24-30.43a84.57,84.57,0,0,0,7.28-6.06c0-.2-.84-.76-1.86-1.24a20.47,20.47,0,0,1-9.89-11.92c-4.76-16,9.55-34.69,26-33.94a17.25,17.25,0,0,1,15.48,10.19c1.7,3.46,1.81,4,1.8,9.45,0,6.88-1.1,10.35-5,16.08-1.4,2-2.41,3.86-2.25,4a19.38,19.38,0,0,0,3.5,1.11,14.25,14.25,0,0,1,9,5.94,10.8,10.8,0,0,0,2,2.49c.19,0,3.57-3.15,7.53-7,4.6-4.48,8.52-7.77,10.89-9.13,2-1.17,3.7-2.33,3.7-2.58a8.4,8.4,0,0,0-2.45-2.14c-3-2-6.43-6.74-8.05-10.92A20.15,20.15,0,0,1,226,99c0-4.12.16-5.09,1.69-8.35a27.47,27.47,0,0,1,28.65-15.25c9.6,1.36,16,6.36,17.82,13.92a29.8,29.8,0,0,1-.49,11.86C271.77,106.91,266,114,260.06,118a14.12,14.12,0,0,0-3.09,2.41,23.23,23.23,0,0,0,3.31,3c4.33,3.49,7.61,7.75,10.87,14.09,5.1,9.95,7.18,18.92,7.18,31v6H284c5,0,6,.18,8.72,1.52a20.38,20.38,0,0,1,9.08,9.52c1.19,2.61,1.35,3.6,1.17,7.5a18.53,18.53,0,0,1-1.27,6.69c-1.5,3.12-6.55,8-10.57,10.18a13.34,13.34,0,0,0-3.43,2.27,7.83,7.83,0,0,0,2.45,1.84c6,3.52,10.79,11.14,14,22.34,1,3.55,2,6.45,2.26,6.45a11.73,11.73,0,0,0,2.17-3.15c3.65-6.48,9.6-12.9,14.09-15.18,1-.5,1.78-1.13,1.78-1.42s-1.11-1.16-2.46-2c-6.62-3.88-8.51-11-5.24-19.61a21.89,21.89,0,0,1,10.51-11.08c3-1.34,3.88-1.49,7.36-1.27,8.93.57,14.37,7.05,13.89,16.52-.32,6.3-3.58,11.28-9.66,14.75a10.49,10.49,0,0,0-2.88,2,5.89,5.89,0,0,0,2.33,1.42c4.73,2.09,10.08,9.45,12.15,16.75A137.59,137.59,0,0,1,353,257.37a.83.83,0,0,0,.85.8c2.6,0,37.36-17.1,48.95-24.07,14.84-8.94,31.51-21.68,59.86-45.73,5.23-4.44,11.18-9.22,13.23-10.61,4-2.73,7.59-3.7,9.08-2.46,2.05,1.7.12,7.79-4.73,14.93-5.23,7.69-40.33,41.44-64.17,61.68-46.52,39.51-87.42,61.26-132,70.16C269.56,325,262.57,325.7,246.5,326c-12,.19-16,.05-23.05-.82ZM319,270.56c9.86-2.92,22.91-7.35,25.13-8.54,1-.54,1.12-1.12,1.12-5.93,0-5.87-1.42-13.69-3.21-17.8-1.35-3.12-5-7.18-7.23-8.12a12,12,0,0,0-4.63-.43c-7.68.64-15.42,10.3-20.71,25.85-1.42,4.19-1.76,6.14-2,11.5-.21,5.53-.13,6.44.59,6.44.46,0,5.37-1.34,10.91-3Zm16.36-56.43a14.92,14.92,0,0,0,4.1-3.35c1.52-1.9,1.68-2.48,1.68-6,0-4.28-.84-6-3.66-7.73-1.83-1.09-6.06-1.12-8.11-.06-6,3.12-9.28,13.7-5.27,17.15,2.06,1.77,7.81,1.78,11.26,0Zm-49.62-9.56a16.82,16.82,0,0,0,6.09-4.26c2.91-2.86,3.45-3.69,3.77-5.89a10.16,10.16,0,0,0-1.79-8c-4.65-7.17-15.67-6.51-20.76,1.26-1.24,1.89-1.92,7.61-1.31,10.94a7.55,7.55,0,0,0,2.7,4.86c2,1.89,2.42,2,5.39,2a22.23,22.23,0,0,0,5.91-.91Zm-95.9-77a22.14,22.14,0,0,0,9.59-10.12,15.81,15.81,0,0,0,1.91-7.68c.21-4,.1-4.65-1.35-7.39-4.12-7.83-14.6-8-22.24-.36-6.47,6.47-8.3,16.62-4.13,22.9C176.66,129.39,183.79,130.56,189.87,127.52Zm64.25-14.33c3.37-1.44,9.93-8.17,11.77-12.08,1.69-3.59,2-9.31.69-11.86a13.61,13.61,0,0,0-6.36-5.55c-3.84-1.74-11.88-1.61-15.89.26-7,3.24-11,8.46-11,14.27,0,4.51,1.22,8.34,3.55,11.06,4.59,5.36,10.61,6.72,17.23,3.9Z" transform="translate(-0.71 -4.62)"/></g><g id="path30"><path d="M223.45,325.14c-34-4.2-61.83-11.07-88.63-21.85C95.46,287.45,62,265.71,28.22,234.08c-19.19-18-27-27.77-27-33.86,0-3.32,1.32-4.31,5.22-3.91,4.28.45,6.53,1.95,15.94,10.65,22.34,20.67,36.88,30.84,62.16,43.48a317.66,317.66,0,0,0,118.6,33c11,.84,37.28.69,49.24-.27a319.39,319.39,0,0,0,45-6.86l2.88-.63v-2.56c0-1.41-.25-7.63-.53-13.81-.9-19.84-4.12-31.28-10.43-37-5.56-5-12.15-3.56-20.5,4.54-10.47,10.15-18.72,27.25-19.42,40.26l-.29,5.35h-7.63l.36-3.71A71.65,71.65,0,0,1,249.92,241c6.22-12.15,14.82-21.69,24.9-27.61.93-.54.75-.75-1.74-2a19.66,19.66,0,0,1-7.71-7.64c-1.23-2.34-1.68-10.52-.8-14.48a24.24,24.24,0,0,1,3.07-6.59c3-4.56,3.2-5.87,2.86-18.19-.23-8.61-.43-10.28-1.72-14.26q-6-18.68-16.61-23.8c-2-1-3.11-1.14-5.92-.91-5.62.45-9.94,2.92-17,9.73l-6,5.77-4.8,9.88c-5.31,10.93-12.33,27.19-16.11,37.32a233.54,233.54,0,0,0-14.35,69.49c-.17,4-.45,8.39-.6,9.67l-.29,2.33h-3.53c-2.46,0-3.53-.21-3.53-.68,0-3.75,1.36-20.78,2.25-28.4,3-25.65,8.55-44.38,24.09-81,3.73-8.8,3.8-16.6.17-20.62-1.9-2.1-2-2.15-5.63-2.15-4.89,0-11.36,1.68-16.77,4.36-9.39,4.66-26.44,19.65-29.49,25.93-2.75,5.66-1.84,9.57,3.31,14.16,2.73,2.43,3,2.79,2.26,3.68-.42.54-4.48,5.43-9,10.86-25.81,30.85-31,39.43-32.57,53.42a19,19,0,0,1-1,5,11.4,11.4,0,0,1-3.65.68l-3.18.24.36-3.88a58,58,0,0,1,6.27-22.29c3.67-7.29,8.8-14.26,24.83-33.69,4.46-5.4,8.1-10.17,8.1-10.59a8.05,8.05,0,0,0-1.67-2.86,16.85,16.85,0,0,1-3.27-9.09c0-7.9,7.66-17.6,24-30.43a84.57,84.57,0,0,0,7.28-6.06c0-.2-.84-.76-1.86-1.24a20.47,20.47,0,0,1-9.89-11.92c-4.76-16,9.55-34.69,26-33.94a17.25,17.25,0,0,1,15.48,10.19c1.7,3.46,1.81,4,1.8,9.45,0,6.88-1.1,10.35-5,16.08-1.4,2-2.41,3.86-2.25,4a19.38,19.38,0,0,0,3.5,1.11,14.25,14.25,0,0,1,9,5.94,10.8,10.8,0,0,0,2,2.49c.19,0,3.57-3.15,7.53-7,4.6-4.48,8.52-7.77,10.89-9.13,2-1.17,3.7-2.33,3.7-2.58a8.4,8.4,0,0,0-2.45-2.14c-3-2-6.43-6.74-8.05-10.92A20.15,20.15,0,0,1,226,99c0-4.12.16-5.09,1.69-8.35a27.47,27.47,0,0,1,28.65-15.25c9.6,1.36,16,6.36,17.82,13.92a29.8,29.8,0,0,1-.49,11.86C271.77,106.91,266,114,260.06,118a14.12,14.12,0,0,0-3.09,2.41,23.23,23.23,0,0,0,3.31,3c4.33,3.49,7.61,7.75,10.87,14.09,5.1,9.95,7.18,18.92,7.18,31v6H284c5,0,6,.18,8.72,1.52a20.38,20.38,0,0,1,9.08,9.52c1.19,2.61,1.35,3.6,1.17,7.5a18.53,18.53,0,0,1-1.27,6.69c-1.5,3.12-6.55,8-10.57,10.18a13.34,13.34,0,0,0-3.43,2.27,7.83,7.83,0,0,0,2.45,1.84c6,3.52,10.79,11.14,14,22.34,1,3.55,2,6.45,2.26,6.45a11.73,11.73,0,0,0,2.17-3.15c3.65-6.48,9.6-12.9,14.09-15.18,1-.5,1.78-1.13,1.78-1.42s-1.11-1.16-2.46-2c-6.62-3.88-8.51-11-5.24-19.61a21.89,21.89,0,0,1,10.51-11.08c3-1.34,3.88-1.49,7.36-1.27,8.93.57,14.37,7.05,13.89,16.52-.32,6.3-3.58,11.28-9.66,14.75a10.49,10.49,0,0,0-2.88,2,5.89,5.89,0,0,0,2.33,1.42c4.73,2.09,10.08,9.45,12.15,16.75A137.59,137.59,0,0,1,353,257.37a.83.83,0,0,0,.85.8c2.6,0,37.36-17.1,48.95-24.07,14.84-8.94,31.51-21.68,59.86-45.73,5.23-4.44,11.18-9.22,13.23-10.61,4-2.73,7.59-3.7,9.08-2.46,2.05,1.7.12,7.79-4.73,14.93-5.23,7.69-40.33,41.44-64.17,61.68-46.52,39.51-87.42,61.26-132,70.16C269.56,325,262.57,325.7,246.5,326c-12,.19-16,.05-23.05-.82ZM319,270.56c9.86-2.92,22.91-7.35,25.13-8.54,1-.54,1.12-1.12,1.12-5.93,0-5.87-1.42-13.69-3.21-17.8-1.35-3.12-5-7.18-7.23-8.12a12,12,0,0,0-4.63-.43c-7.68.64-15.42,10.3-20.71,25.85-1.42,4.19-1.76,6.14-2,11.5-.21,5.53-.13,6.44.59,6.44.46,0,5.37-1.34,10.91-3Zm16.36-56.43a14.92,14.92,0,0,0,4.1-3.35c1.52-1.9,1.68-2.48,1.68-6,0-4.28-.84-6-3.66-7.73-1.83-1.09-6.06-1.12-8.11-.06-6,3.12-9.28,13.7-5.27,17.15,2.06,1.77,7.81,1.78,11.26,0Zm-49.62-9.56a16.82,16.82,0,0,0,6.09-4.26c2.91-2.86,3.45-3.69,3.77-5.89a10.16,10.16,0,0,0-1.79-8c-4.65-7.17-15.67-6.51-20.76,1.26-1.24,1.89-1.92,7.61-1.31,10.94a7.55,7.55,0,0,0,2.7,4.86c2,1.89,2.42,2,5.39,2a22.23,22.23,0,0,0,5.91-.91Zm-95.9-77a22.14,22.14,0,0,0,9.59-10.12,15.81,15.81,0,0,0,1.91-7.68c.21-4,.1-4.65-1.35-7.39-4.12-7.83-14.6-8-22.24-.36-6.47,6.47-8.3,16.62-4.13,22.9C176.66,129.39,183.79,130.56,189.87,127.52Zm64.25-14.33c3.37-1.44,9.93-8.17,11.77-12.08,1.69-3.59,2-9.31.69-11.86a13.61,13.61,0,0,0-6.36-5.55c-3.84-1.74-11.88-1.61-15.89.26-7,3.24-11,8.46-11,14.27,0,4.51,1.22,8.34,3.55,11.06,4.59,5.36,10.61,6.72,17.23,3.9Z" transform="translate(-0.71 -4.62)"/></g><g id="path32"><path d="M223.45,325.14c-34-4.2-61.83-11.07-88.63-21.85C95.46,287.45,62,265.71,28.22,234.08c-19.19-18-27-27.77-27-33.86,0-3.32,1.32-4.31,5.22-3.91,4.28.45,6.53,1.95,15.94,10.65,22.34,20.67,36.88,30.84,62.16,43.48a317.66,317.66,0,0,0,118.6,33c11,.84,37.28.69,49.24-.27a319.39,319.39,0,0,0,45-6.86l2.88-.63v-2.56c0-1.41-.25-7.63-.53-13.81-.9-19.84-4.12-31.28-10.43-37-5.56-5-12.15-3.56-20.5,4.54-10.47,10.15-18.72,27.25-19.42,40.26l-.29,5.35h-7.63l.36-3.71A71.65,71.65,0,0,1,249.92,241c6.22-12.15,14.82-21.69,24.9-27.61.93-.54.75-.75-1.74-2a19.66,19.66,0,0,1-7.71-7.64c-1.23-2.34-1.68-10.52-.8-14.48a24.24,24.24,0,0,1,3.07-6.59c3-4.56,3.2-5.87,2.86-18.19-.23-8.61-.43-10.28-1.72-14.26q-6-18.68-16.61-23.8c-2-1-3.11-1.14-5.92-.91-5.62.45-9.94,2.92-17,9.73l-6,5.77-4.8,9.88c-5.31,10.93-12.33,27.19-16.11,37.32a233.54,233.54,0,0,0-14.35,69.49c-.17,4-.45,8.39-.6,9.67l-.29,2.33h-3.53c-2.46,0-3.53-.21-3.53-.68,0-3.75,1.36-20.78,2.25-28.4,3-25.65,8.55-44.38,24.09-81,3.73-8.8,3.8-16.6.17-20.62-1.9-2.1-2-2.15-5.63-2.15-4.89,0-11.36,1.68-16.77,4.36-9.39,4.66-26.44,19.65-29.49,25.93-2.75,5.66-1.84,9.57,3.31,14.16,2.73,2.43,3,2.79,2.26,3.68-.42.54-4.48,5.43-9,10.86-25.81,30.85-31,39.43-32.57,53.42a19,19,0,0,1-1,5,11.4,11.4,0,0,1-3.65.68l-3.18.24.36-3.88a58,58,0,0,1,6.27-22.29c3.67-7.29,8.8-14.26,24.83-33.69,4.46-5.4,8.1-10.17,8.1-10.59a8.05,8.05,0,0,0-1.67-2.86,16.85,16.85,0,0,1-3.27-9.09c0-7.9,7.66-17.6,24-30.43a84.57,84.57,0,0,0,7.28-6.06c0-.2-.84-.76-1.86-1.24a20.47,20.47,0,0,1-9.89-11.92c-4.76-16,9.55-34.69,26-33.94a17.25,17.25,0,0,1,15.48,10.19c1.7,3.46,1.81,4,1.8,9.45,0,6.88-1.1,10.35-5,16.08-1.4,2-2.41,3.86-2.25,4a19.38,19.38,0,0,0,3.5,1.11,14.25,14.25,0,0,1,9,5.94,10.8,10.8,0,0,0,2,2.49c.19,0,3.57-3.15,7.53-7,4.6-4.48,8.52-7.77,10.89-9.13,2-1.17,3.7-2.33,3.7-2.58a8.4,8.4,0,0,0-2.45-2.14c-3-2-6.43-6.74-8.05-10.92A20.15,20.15,0,0,1,226,99c0-4.12.16-5.09,1.69-8.35a27.47,27.47,0,0,1,28.65-15.25c9.6,1.36,16,6.36,17.82,13.92a29.8,29.8,0,0,1-.49,11.86C271.77,106.91,266,114,260.06,118a14.12,14.12,0,0,0-3.09,2.41,23.23,23.23,0,0,0,3.31,3c4.33,3.49,7.61,7.75,10.87,14.09,5.1,9.95,7.18,18.92,7.18,31v6H284c5,0,6,.18,8.72,1.52a20.38,20.38,0,0,1,9.08,9.52c1.19,2.61,1.35,3.6,1.17,7.5a18.53,18.53,0,0,1-1.27,6.69c-1.5,3.12-6.55,8-10.57,10.18a13.34,13.34,0,0,0-3.43,2.27,7.83,7.83,0,0,0,2.45,1.84c6,3.52,10.79,11.14,14,22.34,1,3.55,2,6.45,2.26,6.45a11.73,11.73,0,0,0,2.17-3.15c3.65-6.48,9.6-12.9,14.09-15.18,1-.5,1.78-1.13,1.78-1.42s-1.11-1.16-2.46-2c-6.62-3.88-8.51-11-5.24-19.61a21.89,21.89,0,0,1,10.51-11.08c3-1.34,3.88-1.49,7.36-1.27,8.93.57,14.37,7.05,13.89,16.52-.32,6.3-3.58,11.28-9.66,14.75a10.49,10.49,0,0,0-2.88,2,5.89,5.89,0,0,0,2.33,1.42c4.73,2.09,10.08,9.45,12.15,16.75A137.59,137.59,0,0,1,353,257.37a.83.83,0,0,0,.85.8c2.6,0,37.36-17.1,48.95-24.07,14.84-8.94,31.51-21.68,59.86-45.73,5.23-4.44,11.18-9.22,13.23-10.61,4-2.73,7.59-3.7,9.08-2.46,2.05,1.7.12,7.79-4.73,14.93-5.23,7.69-40.33,41.44-64.17,61.68-46.52,39.51-87.42,61.26-132,70.16C269.56,325,262.57,325.7,246.5,326c-12,.19-16,.05-23.05-.82ZM319,270.56c9.86-2.92,22.91-7.35,25.13-8.54,1-.54,1.12-1.12,1.12-5.93,0-5.87-1.42-13.69-3.21-17.8-1.35-3.12-5-7.18-7.23-8.12a12,12,0,0,0-4.63-.43c-7.68.64-15.42,10.3-20.71,25.85-1.42,4.19-1.76,6.14-2,11.5-.21,5.53-.13,6.44.59,6.44.46,0,5.37-1.34,10.91-3Zm16.36-56.43a14.92,14.92,0,0,0,4.1-3.35c1.52-1.9,1.68-2.48,1.68-6,0-4.28-.84-6-3.66-7.73-1.83-1.09-6.06-1.12-8.11-.06-6,3.12-9.28,13.7-5.27,17.15,2.06,1.77,7.81,1.78,11.26,0Zm-49.62-9.56a16.82,16.82,0,0,0,6.09-4.26c2.91-2.86,3.45-3.69,3.77-5.89a10.16,10.16,0,0,0-1.79-8c-4.65-7.17-15.67-6.51-20.76,1.26-1.24,1.89-1.92,7.61-1.31,10.94a7.55,7.55,0,0,0,2.7,4.86c2,1.89,2.42,2,5.39,2a22.23,22.23,0,0,0,5.91-.91Zm-95.9-77a22.14,22.14,0,0,0,9.59-10.12,15.81,15.81,0,0,0,1.91-7.68c.21-4,.1-4.65-1.35-7.39-4.12-7.83-14.6-8-22.24-.36-6.47,6.47-8.3,16.62-4.13,22.9C176.66,129.39,183.79,130.56,189.87,127.52Zm64.25-14.33c3.37-1.44,9.93-8.17,11.77-12.08,1.69-3.59,2-9.31.69-11.86a13.61,13.61,0,0,0-6.36-5.55c-3.84-1.74-11.88-1.61-15.89.26-7,3.24-11,8.46-11,14.27,0,4.51,1.22,8.34,3.55,11.06,4.59,5.36,10.61,6.72,17.23,3.9Z" transform="translate(-0.71 -4.62)"/></g></g><path d="M343.66,41.11v18H331.15V5.22h19A31.41,31.41,0,0,1,360,6.57a18.76,18.76,0,0,1,6.73,3.72,14.39,14.39,0,0,1,3.9,5.58,19,19,0,0,1,1.26,7,20.54,20.54,0,0,1-1.29,7.4,15,15,0,0,1-4,5.77,18.78,18.78,0,0,1-6.75,3.76,31,31,0,0,1-9.68,1.35Zm0-9.44h6.51q4.89,0,7-2.33a9.24,9.24,0,0,0,2.15-6.51,9.76,9.76,0,0,0-.56-3.37,6.91,6.91,0,0,0-1.68-2.61,7.56,7.56,0,0,0-2.85-1.68,12.75,12.75,0,0,0-4.09-.59h-6.51Z" transform="translate(-0.71 -4.62)"/><path d="M392.72,39.18v20H380.21V5.22h17.54a36,36,0,0,1,10,1.2,18.75,18.75,0,0,1,6.74,3.35,12.65,12.65,0,0,1,3.79,5.07,16.78,16.78,0,0,1,1.18,6.36,17.09,17.09,0,0,1-.7,5,15.23,15.23,0,0,1-2.09,4.31,16.22,16.22,0,0,1-3.4,3.53,18.25,18.25,0,0,1-4.65,2.56,11.65,11.65,0,0,1,2.35,1.55,9.42,9.42,0,0,1,1.91,2.26l11.47,18.76H413a4.8,4.8,0,0,1-4.51-2.37l-9-15.65a3.78,3.78,0,0,0-1.39-1.48,4.6,4.6,0,0,0-2.24-.45Zm0-8.62h5a12.7,12.7,0,0,0,4.35-.65A7.89,7.89,0,0,0,405,28.12a6.8,6.8,0,0,0,1.66-2.68,10.21,10.21,0,0,0,.52-3.31,6.94,6.94,0,0,0-2.31-5.55c-1.54-1.34-3.93-2-7.16-2h-5Z" transform="translate(-0.71 -4.62)"/><path d="M470.71,5.22V9.73a5.85,5.85,0,0,1-.31,1.89,7.45,7.45,0,0,1-.87,1.74L444.22,49.51H469.9v9.62H428.31V54.32a5,5,0,0,1,.3-1.69,6.23,6.23,0,0,1,.81-1.53L454.8,14.84H430.38V5.22Z" transform="translate(-0.71 -4.62)"/><path d="M505.12,38.63v20.5h-12.5V38.63L473.08,5.22h11A4.05,4.05,0,0,1,486.7,6a5.53,5.53,0,0,1,1.55,1.94l7.62,15.69,1.71,3.47c.51,1.06,1,2.11,1.37,3.15a28.64,28.64,0,0,1,1.33-3.18l1.66-3.44,7.55-15.69a4.66,4.66,0,0,1,.61-1,5.64,5.64,0,0,1,.89-.87,4.1,4.1,0,0,1,1.15-.63,4,4,0,0,1,1.42-.24h11.1Z" transform="translate(-0.71 -4.62)"/><path d="M563.47,45.18a2.54,2.54,0,0,1,.89.16,2.39,2.39,0,0,1,.85.58l5,5.21A20.52,20.52,0,0,1,562,57.55a28.42,28.42,0,0,1-11.6,2.17,27.75,27.75,0,0,1-11-2.09,24,24,0,0,1-8.25-5.77,25.61,25.61,0,0,1-5.2-8.74,32.41,32.41,0,0,1-1.81-11,29,29,0,0,1,2.07-11.08A25.89,25.89,0,0,1,532,12.36a26.25,26.25,0,0,1,8.9-5.7,31,31,0,0,1,11.44-2,28.9,28.9,0,0,1,5.71.54,28.23,28.23,0,0,1,5,1.48,23.59,23.59,0,0,1,4.29,2.26,21.09,21.09,0,0,1,3.48,2.9l-4.22,5.66a5.4,5.4,0,0,1-1,.95,2.56,2.56,0,0,1-1.56.42,2.91,2.91,0,0,1-1.26-.29c-.39-.2-.81-.44-1.25-.72l-1.47-.93a11.36,11.36,0,0,0-1.88-.92,15.2,15.2,0,0,0-2.56-.73,18,18,0,0,0-3.42-.29,15.63,15.63,0,0,0-6.21,1.2,13.55,13.55,0,0,0-4.83,3.44A15.83,15.83,0,0,0,538.07,25a21.31,21.31,0,0,0-1.13,7.14,22.29,22.29,0,0,0,1.13,7.37,16.29,16.29,0,0,0,3.07,5.42,13.09,13.09,0,0,0,4.54,3.34,13.42,13.42,0,0,0,5.55,1.15,26.69,26.69,0,0,0,3.1-.16,13.5,13.5,0,0,0,2.61-.58,12.24,12.24,0,0,0,2.3-1,15.72,15.72,0,0,0,2.2-1.61,4,4,0,0,1,1-.61A2.49,2.49,0,0,1,563.47,45.18Z" transform="translate(-0.71 -4.62)"/><path d="M624.78,59.13H612.2V36.33H590.3v22.8H577.72V5.22H590.3V27.75h21.9V5.22h12.58Z" transform="translate(-0.71 -4.62)"/><path d="M688.72,32.15a29,29,0,0,1-2,10.88,25.74,25.74,0,0,1-14.5,14.58,32.18,32.18,0,0,1-22.92,0,26.28,26.28,0,0,1-8.87-5.83A26,26,0,0,1,634.72,43a28.85,28.85,0,0,1-2-10.88,28.92,28.92,0,0,1,2-10.88,25.93,25.93,0,0,1,5.69-8.73,26.54,26.54,0,0,1,8.87-5.81,30.21,30.21,0,0,1,11.46-2.11A29.76,29.76,0,0,1,672.2,6.75,26.36,26.36,0,0,1,681,12.58a26.05,26.05,0,0,1,5.68,8.73A29,29,0,0,1,688.72,32.15Zm-12.81,0a23.29,23.29,0,0,0-1-7.19,15.1,15.1,0,0,0-3-5.42,12.85,12.85,0,0,0-4.75-3.41A16.39,16.39,0,0,0,660.74,15a16.59,16.59,0,0,0-6.45,1.18,12.76,12.76,0,0,0-4.77,3.41,15.1,15.1,0,0,0-3,5.42,23.28,23.28,0,0,0-1,7.19,23.52,23.52,0,0,0,1,7.24,15.19,15.19,0,0,0,3,5.42,12.47,12.47,0,0,0,4.77,3.38,16.78,16.78,0,0,0,6.45,1.17,16.57,16.57,0,0,0,6.41-1.17,12.56,12.56,0,0,0,4.75-3.38,15.19,15.19,0,0,0,3-5.42A23.53,23.53,0,0,0,675.91,32.15Z" transform="translate(-0.71 -4.62)"/><path d="M745.47,32.15a28.35,28.35,0,0,1-2,10.79,25.44,25.44,0,0,1-5.68,8.55A25.92,25.92,0,0,1,729,57.11a31.28,31.28,0,0,1-11.45,2H696.56V5.22H717.5a31.07,31.07,0,0,1,11.45,2,26.1,26.1,0,0,1,8.83,5.63,25.12,25.12,0,0,1,5.68,8.52A28.29,28.29,0,0,1,745.47,32.15Zm-12.8,0a23.47,23.47,0,0,0-1-7.21,15.44,15.44,0,0,0-3-5.46A13,13,0,0,0,723.9,16a16.16,16.16,0,0,0-6.4-1.2h-8.36V49.51h8.36a16,16,0,0,0,6.4-1.21,13,13,0,0,0,4.76-3.44,15.44,15.44,0,0,0,3-5.46A23.6,23.6,0,0,0,732.67,32.15Z" transform="translate(-0.71 -4.62)"/><path d="M761.27,5.29a3.34,3.34,0,0,1,1,.28,3.25,3.25,0,0,1,.85.57,10.78,10.78,0,0,1,.93,1l25.6,32.38c-.1-1-.17-2.05-.22-3s-.07-1.89-.07-2.76V5.22h11V59.13h-6.51a5.91,5.91,0,0,1-2.44-.45,5.18,5.18,0,0,1-1.93-1.63L764.08,24.94c.08.94.14,1.85.19,2.75s.07,1.75.07,2.54v28.9h-11V5.22h6.58A10.52,10.52,0,0,1,761.27,5.29Z" transform="translate(-0.71 -4.62)"/><path d="M824.8,59.13H812.22V5.22H824.8Z" transform="translate(-0.71 -4.62)"/><path d="M886.81,59.13h-9.69a4.5,4.5,0,0,1-2.68-.76A3.9,3.9,0,0,1,873,56.42L869.79,47h-20.5l-3.18,9.39a4,4,0,0,1-1.44,1.87,4.14,4.14,0,0,1-2.63.84h-9.76L853.14,5.22H866ZM852.18,38.52h14.73l-5-14.77c-.32-.93-.7-2-1.13-3.31s-.86-2.64-1.28-4.12c-.39,1.5-.8,2.9-1.22,4.18s-.81,2.39-1.18,3.33Z" transform="translate(-0.71 -4.62)"/><path d="M549.83,150.8a38.21,38.21,0,0,1-3.52-14.5A39.09,39.09,0,0,1,548.49,122a48.09,48.09,0,0,1,7.28-13.36,66,66,0,0,1,11.88-11.93l5.74,3.76a3.1,3.1,0,0,1,1.29,2.57,3.14,3.14,0,0,1-.5,1.69,20.58,20.58,0,0,1-1.68,2.17,39.59,39.59,0,0,0-4.11,5.6,33.26,33.26,0,0,0-3.47,7.72,30.21,30.21,0,0,0-1.28,9.35,25.9,25.9,0,0,0,2.52,10.5,3.45,3.45,0,0,1-.15,3.36,5.68,5.68,0,0,1-3.11,2.38Zm29,0a38.19,38.19,0,0,1-3.51-14.5A38.88,38.88,0,0,1,577.5,122a48.06,48.06,0,0,1,7.27-13.36,66.64,66.64,0,0,1,11.88-11.93l5.75,3.76a3.2,3.2,0,0,1,.79,4.26,20.58,20.58,0,0,1-1.68,2.17,38.83,38.83,0,0,0-4.11,5.6,32.85,32.85,0,0,0-3.47,7.72,30.21,30.21,0,0,0-1.28,9.35,25.9,25.9,0,0,0,2.52,10.5,3.45,3.45,0,0,1-.15,3.36,5.74,5.74,0,0,1-3.12,2.38Z" transform="translate(-0.71 -4.62)"/><path d="M801.39,106.94,743.08,249.5h-20.2L705.26,145.85c-.2-1.19-.38-2.47-.55-3.86s-.31-2.84-.44-4.36c-.53,1.52-1,3-1.54,4.36s-1,2.67-1.53,3.86L658.13,249.5H638L614.67,106.94H632.2a7.18,7.18,0,0,1,4.65,1.44,5.6,5.6,0,0,1,2.08,3.81l13.86,93.36q.3,3,.54,6.33c.17,2.25.31,4.59.45,7,.72-2.5,1.5-4.88,2.32-7.13s1.64-4.32,2.43-6.23l38.81-93.36a9.53,9.53,0,0,1,3-3.61,8,8,0,0,1,5-1.64h5.14a6.85,6.85,0,0,1,4.61,1.49,7.21,7.21,0,0,1,2.32,3.76l15.94,93.36q.5,2.87.89,6.14t.6,6.83c.72-2.38,1.42-4.66,2.08-6.83s1.32-4.23,2-6.14l36.73-93.36a7.22,7.22,0,0,1,3-3.66,9,9,0,0,1,5.19-1.59Z" transform="translate(-0.71 -4.62)"/><path d="M834.35,148.52l-12.18,101H801.28l12.08-101ZM840.69,118a12.89,12.89,0,0,1-1.19,5.45,15.08,15.08,0,0,1-3.17,4.5,15.74,15.74,0,0,1-4.45,3.07,12.19,12.19,0,0,1-5.15,1.14,11.87,11.87,0,0,1-5.1-1.14,14,14,0,0,1-4.26-3.07,15.86,15.86,0,0,1-3-4.5,13.31,13.31,0,0,1-1.14-5.45,13.64,13.64,0,0,1,1.14-5.49,15.17,15.17,0,0,1,3-4.56,14.71,14.71,0,0,1,4.36-3.07,12.08,12.08,0,0,1,5.05-1.13,12.61,12.61,0,0,1,5.19,1.13,15,15,0,0,1,4.46,3.07,14.72,14.72,0,0,1,3.07,4.51A13.5,13.5,0,0,1,840.69,118Z" transform="translate(-0.71 -4.62)"/><path d="M849.79,249.5,867.51,103h21L870.68,249.5Z" transform="translate(-0.71 -4.62)"/><path d="M964.53,240.84a50,50,0,0,1-9.35,6,38.45,38.45,0,0,1-9.8,3.22,62.22,62.22,0,0,1-11.14.94,38.35,38.35,0,0,1-15.64-3,31.46,31.46,0,0,1-11.49-8.51A38.16,38.16,0,0,1,900,226.24a55.64,55.64,0,0,1-2.48-17.13,72,72,0,0,1,6.83-30.64,62.83,62.83,0,0,1,8-12.67,53.8,53.8,0,0,1,10.54-10,49.35,49.35,0,0,1,12.68-6.49A44.79,44.79,0,0,1,950,147q10.1,0,17,3.56a36.06,36.06,0,0,1,12.13,10.5l-6.74,8.11a10.57,10.57,0,0,1-1.78,1.44,3.89,3.89,0,0,1-2.18.64,4.59,4.59,0,0,1-2.87-1.09c-.92-.72-2-1.53-3.36-2.42a24.76,24.76,0,0,0-4.95-2.48,21.82,21.82,0,0,0-7.63-1.13,22.64,22.64,0,0,0-11.83,3.36,32.53,32.53,0,0,0-9.8,9.36,49.13,49.13,0,0,0-6.68,14.3,63.35,63.35,0,0,0-2.47,18.12q0,11.69,5.19,18.31t14.7,6.64a25.58,25.58,0,0,0,10.2-1.78,35.72,35.72,0,0,0,6.88-3.87c1.88-1.38,3.52-2.67,4.9-3.86A6.67,6.67,0,0,1,965,223a5.19,5.19,0,0,1,3.86,2l5.35,6.54A81.47,81.47,0,0,1,964.53,240.84Z" transform="translate(-0.71 -4.62)"/><path d="M1068.38,148.52l-1.18,8.91a12.81,12.81,0,0,1-1.19,4.36,18.19,18.19,0,0,1-2.38,3.76L1009.58,233h46.92l-1.88,16.53H982.25l1.09-8.91a10.7,10.7,0,0,1,1.09-3.61,17.86,17.86,0,0,1,2.48-3.91l54.45-68h-46l2-16.54Z" transform="translate(-0.71 -4.62)"/><path d="M1135.5,225.94a78.61,78.61,0,0,1-7.37,10.35,51.14,51.14,0,0,1-8.27,7.87,36,36,0,0,1-9.2,5.05,29.31,29.31,0,0,1-10.1,1.78,25.46,25.46,0,0,1-10.79-2.28,22.89,22.89,0,0,1-8.52-6.83,34.1,34.1,0,0,1-5.59-11.24,53.47,53.47,0,0,1-2-15.49,68,68,0,0,1,2.28-17.57,70.83,70.83,0,0,1,16.43-30.05,63.79,63.79,0,0,1,28.66-18,60.63,60.63,0,0,1,17.57-2.52,84.13,84.13,0,0,1,13.17,1,56.86,56.86,0,0,1,12.77,3.61l-12.08,97.81h-11.18q-4.07,0-5.55-2.08a8.6,8.6,0,0,1-1.48-5.14Zm6.74-63.16c-1.13-.13-2.23-.23-3.32-.3s-2.19-.1-3.32-.1a33.62,33.62,0,0,0-16,4,41.88,41.88,0,0,0-13,10.7,51.9,51.9,0,0,0-8.67,15.59,55.07,55.07,0,0,0-3.16,18.66q0,11.28,3.61,16.68a11.62,11.62,0,0,0,10.25,5.4,15.29,15.29,0,0,0,8.71-2.92,35.33,35.33,0,0,0,8.07-8,69.28,69.28,0,0,0,7.07-12,103.88,103.88,0,0,0,5.65-15.05Z" transform="translate(-0.71 -4.62)"/><path d="M1217.28,103l-10.4,85h2.77a8.13,8.13,0,0,0,3.52-.65,10.16,10.16,0,0,0,2.92-2.42l29.9-32.38a11.87,11.87,0,0,1,3.31-3,8.59,8.59,0,0,1,4.31-1h18.91l-36,38.42a26.45,26.45,0,0,1-6.83,6,15.68,15.68,0,0,1,2.92,3.17,32.29,32.29,0,0,1,2.33,4l27.42,49.4H1244a8.62,8.62,0,0,1-4.06-.84,6.07,6.07,0,0,1-2.58-3.12l-22.47-39.6a6.1,6.1,0,0,0-2.37-2.92,9.6,9.6,0,0,0-4.06-.64h-3.37l-5.74,47.12h-21l18-146.52Z" transform="translate(-0.71 -4.62)"/><path d="M1309.05,99.52a38,38,0,0,1,3.51,14.5,38.72,38.72,0,0,1-2.17,14.21,48.49,48.49,0,0,1-7.33,13.36,68.59,68.59,0,0,1-11.83,12l-5.74-3.76a3.1,3.1,0,0,1-1.29-2.57,3.06,3.06,0,0,1,.5-1.69,20.58,20.58,0,0,1,1.68-2.17,49.63,49.63,0,0,0,4.06-5.6,31.74,31.74,0,0,0,3.51-7.72,30.34,30.34,0,0,0,1.29-9.31,26.69,26.69,0,0,0-2.53-10.54,3.53,3.53,0,0,1,.15-3.37,5.77,5.77,0,0,1,3.12-2.37Zm29,0a37.82,37.82,0,0,1,1.33,28.71,48.45,48.45,0,0,1-7.32,13.36,68.59,68.59,0,0,1-11.83,12l-5.75-3.76a3.2,3.2,0,0,1-.79-4.26,19.64,19.64,0,0,1,1.69-2.17,49.69,49.69,0,0,0,4-5.6,31.38,31.38,0,0,0,3.52-7.72,30.34,30.34,0,0,0,1.29-9.31,26.69,26.69,0,0,0-2.53-10.54,3.47,3.47,0,0,1,.15-3.37,5.77,5.77,0,0,1,3.12-2.37Z" transform="translate(-0.71 -4.62)"/></svg>
